<?xml version="1.0" encoding="UTF-8"?>
<svg width="164px" height="71px" viewBox="0 0 164 71" version="1.1" xmlns="http://www.w3.org/2000/svg" xmlns:xlink="http://www.w3.org/1999/xlink">
    <!-- Generator: Sketch 51.3 (57544) - http://www.bohemiancoding.com/sketch -->
    <title>CD_Logo_RGB_Left_White</title>
    <desc>Created with Sketch.</desc>
    <defs></defs>
    <g id="Interim-design" stroke="none" stroke-width="1" fill="none" fill-rule="evenodd">
        <g id="00.04---Original-design" transform="translate(-169.000000, -93.000000)" fill="#FFFFFF">
            <g id="CD_Logo_RGB_Left_White" transform="translate(169.000000, 93.000000)">
                <g id="Group" transform="translate(30.000000, 0.000000)">
                    <g>
                        <path d="M19.9037657,8.21172353 C17.8741423,6.85826772 15.6875314,6.15310586 13.2542259,6.15310586 C8.30912134,6.15310586 5.02359833,9.61067367 5.02359833,15.1951006 C5.02359833,20.8705162 8.23062762,24.4531934 13.3327197,24.4531934 C15.9230126,24.4531934 18.4011715,23.463692 20.2625941,22.1557305 L21.1933054,26.7620297 C19.163682,28.0017498 16.0015063,28.7751531 13.1196653,28.7751531 C5.33757322,28.7751531 0.0224267782,23.7935258 0.0224267782,15.3657043 C0.0224267782,7.14260717 5.33757322,1.83114611 13.2430126,1.83114611 C16.2033473,1.83114611 19.2421757,2.61592301 21.44,3.84426947 L19.9037657,8.21172353 Z" id="Path"></path>
                        <path d="M47.4550628,28.1609799 L42.6669456,28.1609799 L42.6669456,9.31496063 L47.4550628,8.60979878 L47.4550628,11.6920385 C48.6324686,9.67891514 50.1350628,8.56430446 52.3216736,8.56430446 C53.4542259,8.56430446 54.6316318,8.81452318 55.6520502,9.42869641 L54.5979916,13.7847769 C53.7009205,13.295713 52.8150628,13.0454943 51.9179916,13.0454943 C50.25841,13.0454943 48.7109623,14.1146107 47.4550628,16.4234471 L47.4550628,28.1609799 Z" id="Path"></path>
                        <path d="M68.9847699,0.682414698 L73.772887,0.0227471566 L73.772887,28.1496063 L68.9847699,28.1496063 C68.9847699,28.1496063 68.9847699,26.5004374 68.9847699,26.295713 C67.7288703,27.5354331 66.0244351,28.7637795 63.714477,28.7637795 C58.7693724,28.7637795 55.5623431,24.6920385 55.5623431,18.8118985 C55.5623431,12.7611549 59.7000837,8.57567804 65.0152301,8.57567804 C66.3496234,8.57567804 67.8185774,8.82589676 68.9847699,9.18985127 L68.9847699,0.682414698 Z M65.4525523,12.4426947 C62.245523,12.4426947 60.428954,15.1154856 60.428954,18.6071741 C60.428954,22.3149606 62.2567364,24.6579178 65.127364,24.6579178 C66.7084519,24.6579178 67.9307113,24.0778653 68.9735565,23.0997375 C68.9735565,23.2589676 68.9735565,13.5573053 68.9735565,13.5573053 C68.0540586,12.8521435 66.8766527,12.4426947 65.4525523,12.4426947 Z" id="Shape" fill-rule="nonzero"></path>
                        <path d="M80.9158159,19.7217848 C81.1176569,22.8040245 83.1809205,24.9081365 86.5112971,24.9081365 C88.4960669,24.9081365 90.6490377,24.2484689 92.3534728,23.1793526 L92.9589958,27.2055993 C91.1760669,28.1951006 88.6979079,28.7637795 86.1861088,28.7637795 C80.1869456,28.7637795 76.2061925,24.8967629 76.2061925,18.8573928 C76.2061925,12.6929134 80.2654393,8.57567804 85.8609205,8.57567804 C90.8060251,8.57567804 93.5645188,11.623797 93.5645188,16.264217 C93.5645188,17.287839 93.4075314,18.6071741 93.1608368,19.4260717 C93.1159833,19.4260717 80.9158159,19.5853018 80.9158159,19.5853018 L80.9158159,19.7217848 Z M89.0679498,16.7191601 C89.0679498,16.6395451 89.0679498,16.4348206 89.0679498,16.3893263 C89.0679498,13.8416448 87.9690377,12.2379703 85.5020921,12.2379703 C82.8669456,12.2379703 81.2858577,14.4216973 81.0391632,16.7646544 L89.0679498,16.7191601 Z" id="Shape" fill-rule="nonzero"></path>
                        <polygon id="Path" points="96.1435983 28.1609799 96.1435983 0.682414698 100.931715 0.0227471566 100.931715 28.1609799"></polygon>
                        <path d="M111.16954,28.7751531 C106.998159,28.7751531 104.800335,26.9212598 104.968536,22.3604549 L105.24887,13.432196 L102.333389,13.1023622 L102.456736,10.0201225 L105.372218,9.07611549 L105.450711,4.87926509 L110.070628,4.87926509 L109.992134,9.31496063 L115.262427,9.31496063 L115.139079,13.3070866 L109.700586,13.3070866 L109.453891,22.0647419 C109.409038,23.8276465 110.306109,24.6579178 111.93205,24.6579178 C112.907615,24.6579178 113.88318,24.407699 114.847531,24.0778653 L115.497908,28.0244969 C114.096234,28.5249344 112.795481,28.7751531 111.16954,28.7751531 Z" id="Path"></path>
                        <path d="M127.507448,25.9772528 C126.173054,27.6264217 124.547113,28.7751531 122.237155,28.7751531 C118.873138,28.7751531 116.439833,26.432196 116.439833,23.4295713 C116.439833,19.9378828 118.951632,16.9693788 127.507448,16.6850394 L127.507448,16.2300962 C127.507448,13.6824147 126.453389,12.6132983 123.773389,12.6132983 C121.867113,12.6132983 119.557155,13.4776903 117.572385,14.6264217 L116.59682,10.8048994 C118.424603,9.65616798 121.340084,8.58705162 124.423766,8.58705162 C130.187448,8.58705162 132.407699,11.1802275 132.295565,16.4006999 L132.295565,23.1907262 C132.295565,24.623797 132.542259,24.839895 133.955146,24.9195101 L133.585105,28.5818023 C130.019247,28.9912511 128.359665,27.8766404 127.664435,25.9886264 L127.507448,25.9886264 L127.507448,25.9772528 Z M127.507448,19.2327209 C122.842678,19.8127734 121.138243,20.7567804 121.138243,22.7699038 C121.138243,24.2029746 122.237155,25.2379703 123.94159,25.2379703 C125.444184,25.2379703 126.65523,24.5328084 127.507448,23.5888014 L127.507448,19.2327209 Z" id="Shape" fill-rule="nonzero"></path>
                    </g>
                    <g transform="translate(22.426778, 8.530184)">
                        <path d="M10.4396653,2.29746282 C8.52217573,1.3079615 3.84619247,-0.841644794 1.73807531,0.477690289 C0.0112133891,1.51268591 -0.269121339,6.94925634 0.347615063,11.544182 C0.852217573,15.32021 2.10811715,19.5625547 4.1265272,20.11986 C4.46292887,20.2108486 4.79933054,20.256343 5.158159,20.256343 C7.66995816,20.256343 10.5742259,18.152231 12.2113808,16.7874016 C15.5753975,13.9553806 18.5469456,10.0656168 18.4348117,8.63254593 C18.3338912,7.26771654 14.1400837,4.20822397 10.4396653,2.29746282 M13.6691213,12.0901137 C11.1124686,14.6036745 7.16535565,17.071741 5.00117155,16.8101487 C3.9134728,16.6850394 3.05004184,15.183727 2.55665272,12.5791776 C1.78292887,8.46194226 2.22025105,2.65004374 3.36401674,2.03587052 C4.37322176,1.44444444 8.36518828,2.5704287 11.9086192,4.43569554 C14.4764854,5.78915136 16.0575732,7.17672791 16.1472803,8.15485564 C16.2033473,9.03062117 15.2838494,10.4978128 13.6691213,12.0901137" id="Shape" fill-rule="nonzero"></path>
                        <path d="M5.57305439,4.1399825 C4.47414226,4.60629921 5.10209205,13.2615923 6.58225941,13.6937883 C8.06242678,14.1259843 12.2898745,9.53105862 12.2225941,8.22309711 C12.0319665,6.66491689 6.67196653,3.67366579 5.57305439,4.1399825" id="Path"></path>
                    </g>
                </g>
                <path d="M0,34 L8.65607087,34 C16.392913,34 21,38.4890447 21,47 C21,55.8413672 16.4038562,60 8.59041167,60 L0,60 L0,34 Z M8.48097968,57.0604733 C14.6201146,57.0604733 17.8264721,53.9842244 17.8264721,47 C17.8264721,40.2094654 14.6201146,36.9395267 8.55758207,36.9395267 L3.07503908,36.9395267 L3.07503908,57.0604733 L8.48097968,57.0604733 Z" id="Shape" fill-rule="nonzero"></path>
                <path d="M26,34 L29,34 L29,37.3198624 L26,37.3198624 L26,34 Z M26.2516129,40.6956148 L28.8354839,40.6956148 L28.8354839,60 L26.2516129,60 L26.2516129,40.6956148 Z" id="Shape" fill-rule="nonzero"></path>
                <path d="M33.5424374,65.3163992 L36.1474429,63.9970145 C37.632753,67.0530253 39.757889,68.37241 43.2540805,68.37241 C47.2415669,68.37241 50.0636561,65.8351317 50.0636561,62.2716652 L50.0636561,57.4677516 L49.9836779,57.4677516 C48.4183896,59.4524671 45.6991295,60.5914231 42.5342764,60.5914231 C36.273123,60.5914231 32,56.3964563 32,50.2957116 C32,44.4205027 36.4330794,40 42.3857454,40 C45.4363439,40 48.1898803,41.1051257 49.8694233,43.0109036 L49.9494015,43.0109036 L49.9494015,40.5525628 L53,40.5525628 L53,62.3957099 C53,67.4251594 48.9439608,70.9999026 43.2426551,70.9999026 C38.5696409,71.0111794 35.2219804,69.0715711 33.5424374,65.3163992 Z M49.960827,51.7729714 L49.960827,48.8297285 C49.960827,45.37903 46.7616975,42.6500462 42.5457018,42.6500462 C38.0440696,42.6500462 35.0620239,45.6947802 35.0620239,50.2957116 C35.0620239,55.0319644 37.9640914,57.9413769 42.7285092,57.9413769 C46.7959739,57.9526537 49.960827,55.1898395 49.960827,51.7729714 Z" id="Shape" fill-rule="nonzero"></path>
                <path d="M58,34 L61,34 L61,37.3198624 L58,37.3198624 L58,34 Z M58.2516129,40.6956148 L60.8451613,40.6956148 L60.8451613,60 L58.2612903,60 L58.2612903,40.6956148 L58.2516129,40.6956148 Z" id="Shape" fill-rule="nonzero"></path>
                <path d="M70.9891304,43.6630435 L70.9891304,55.7065217 C70.9891304,56.9782609 71.5217391,57.4456522 73.0434783,57.4456522 L75.9782609,57.4456522 L75.9782609,60 L73,60 C69.4891304,60 68.076087,58.7608696 68.076087,55.673913 L68.076087,43.6630435 L64,43.6630435 L64,41.2173913 L68.076087,41.2173913 L68.076087,37 L70.9782609,37 L70.9782609,41.2173913 L77,41.2173913 L77,43.6630435 L70.9891304,43.6630435 Z" id="Path" fill-rule="nonzero"></path>
                <path d="M79,55.3969298 C79,52.0745614 81.4683053,50.4298246 87.8835705,49.4649123 C92.2147477,48.7850877 93.6468305,48.0394737 93.6468305,46.5701754 C93.6468305,44.75 91.6791721,43.5657895 88.6054334,43.5657895 C85.1125485,43.5657895 82.7257439,45.2434211 82.1203105,48.1052632 L79.1280724,47.502193 C79.8848642,43.5328947 83.5640362,41 88.6170763,41 C93.7050453,41 97,43.4342105 97,47.1842105 L97,60.4736842 L94.007762,60.4736842 L94.007762,58.0723684 L93.9262613,58.0723684 C92.5640362,59.8596491 89.6416559,61 86.4514877,61 C81.8059508,61 79,58.8947368 79,55.3969298 Z M93.8796895,53.8618421 L93.8796895,49.7828947 L93.7981889,49.7828947 C93.2276843,50.747807 91.7490298,51.2850877 88.4424321,51.8223684 C83.9249677,52.5350877 82.1435964,53.5328947 82.1435964,55.3969298 C82.1435964,57.4364035 83.7386805,58.4013158 87.080207,58.4013158 C90.6895213,58.4013158 93.8796895,56.252193 93.8796895,53.8618421 Z" id="Shape" fill-rule="nonzero"></path>
                <polygon id="Path" fill-rule="nonzero" points="101 33 104 33 104 60 101 60"></polygon>
            </g>
        </g>
    </g>
</svg>