<svg xmlns="http://www.w3.org/2000/svg" viewBox="0 0 66.07854 80.96608"><path d="M32.98538 59.28365a3.57734 3.57734 0 00-1.36718.48828 72.6178 72.6178 0 01-5.56641 9.57031q-4.1997 5.95606-8.30078 8.39844-5.95752 3.31934-10.05859 3.22266-2.05079 0-2.14844-.39063-.09814-.39111 2.24609-1.07422a21.50112 21.50112 0 007.32422-5.17578 74.73777 74.73777 0 008.39844-10.54687 5.193 5.193 0 01.97656-1.36719 56.099 56.099 0 00-5.76172 2.63672 13.34241 13.34241 0 01-4.78515 1.5625 11.78556 11.78556 0 01-4.88282-.293 34.26353 34.26353 0 01-5.85937-2.14844A21.05151 21.05151 0 01.27054 62.018a1.00532 1.00532 0 01.09766-1.46485q.68189-.58593 3.32031.6836a11.50377 11.50377 0 005.37109.39062 23.738 23.738 0 006.73828-1.66016q3.61158-1.17187 12.793-3.80859 1.85376-3.02563 3.61328-6.25a74.88856 74.88856 0 004.58985-9.76562q-2.05079.783-4.10156 1.66015a34.83943 34.83943 0 00-8.78907 4.78516q-3.12671 2.34375-6.15234 4.49219-1.46484 1.17188-2.44141.293a16.69913 16.69913 0 01-2.73437-3.22265q-.97706-1.65967.8789-2.63672a5.675 5.675 0 002.14844-1.85547 35.09559 35.09559 0 002.63672-5.85937 33.49733 33.49733 0 001.07422-4.98047 7.06276 7.06276 0 00-.78125-4.00391q-.783-1.46484.48828-1.36719a6.13773 6.13773 0 013.418 1.26953 4.98638 4.98638 0 012.05078 2.44141 4.41859 4.41859 0 01-.09766 3.02734q-1.66187 3.71265-3.51562 7.32422-.58595 1.07594-.19531 1.46485.38891.58593 2.14843-.39063 10.05688-4.88232 20.41016-8.6914a44.22116 44.22116 0 017.61719-1.75782 7.12609 7.12609 0 013.80859.48828 10.49418 10.49418 0 013.02735 2.05079 1.86141 1.86141 0 01.48828 1.85546 3.68737 3.68737 0 01-1.46485 2.05079 59.66143 59.66143 0 00-8.10547 7.71484q-1.07592 1.07592-1.36718.97656-.49-.293.09765-1.17187a39.05123 39.05123 0 004.29688-7.22657q.87891-1.95263.19531-2.832-.49-.58593-2.34375-.19531-3.51562.87891-7.91016 2.44141-1.75781.58593-3.32031 1.26953a.28888.28888 0 01.09766.19531q0 3.90674-3.32031 12.207a17.23765 17.23765 0 00-1.07422 2.63672q8.69091-2.53857 20.70312-6.34766a11.4278 11.4278 0 015.76172-.97656 5.10309 5.10309 0 013.22266 2.34375 3.00178 3.00178 0 01.48828 1.5625 2.45141 2.45141 0 01-1.5625.78125 300.15435 300.15435 0 00-29.58991 7.32421zM17.26273 6.06099q.48779-.38891 1.66015.293a15.95244 15.95244 0 014.58985 3.61328q1.36669 1.66187 2.24609 7.61719a67.83418 67.83418 0 01.6836 7.91016q-.39112 1.3689-.78125 1.46484-.49.09814-1.66016-1.36719a21.86223 21.86223 0 01-3.02734-5.85937 47.73307 47.73307 0 01-2.05079-8.10547 15.50642 15.50642 0 00-1.46484-4.00391q-.58593-1.26785-.19531-1.56253zm28.125-4.78515A6.91724 6.91724 0 0149.87992.00631a4.39664 4.39664 0 013.22265 1.75781 4.70652 4.70652 0 011.46485 3.32031q-.49 2.24781-4.6875 5.56641a54.19864 54.19864 0 00-8.20313 8.20312q-1.17187 1.66187-.87891 2.34375.4878.87891 3.22266-.293 2.9297-.97485 5.957-2.24609 1.36669-.48779 1.46485.09766.19482.58593-1.95313 2.14843a32.04321 32.04321 0 01-11.13281 6.543 3.86483 3.86483 0 01-2.73438.293 2.09062 2.09062 0 01-1.26953-1.46484 6.32234 6.32234 0 01-.39062-2.63672 3.04012 3.04012 0 011.36718-2.05078 12.11742 12.11742 0 002.92969-2.73438q3.02564-4.6875 5.76172-8.88672 1.07373-1.75781.68359-2.34375a2.26851 2.26851 0 00-2.34375-.48828q-6.05638 1.856-8.98437 2.832-2.63672.87891-3.61328.48829-1.563-.68188.58594-1.36719 10.34988-3.90454 15.03909-7.8125zm-2.05078 62.89062a57.85488 57.85488 0 0114.16015 3.32032 18.34443 18.34443 0 013.32032 1.85546q4.29638 3.90528 4.98046 7.22657.68188 2.83154-.293 3.80859-.87891.87891-2.73438-.39062a10.09315 10.09315 0 00-1.85547-.97657q-4.00561-1.07518-8.20312-2.05078-1.46485-.293-1.46485-.68359.096-.48926 1.36719-.48828 1.75782-.09814 3.32031-.09766 1.65967 0 1.66016-.58594.19482-.78222-1.26953-2.05078a13.89163 13.89163 0 00-2.92969-2.24609 45.99139 45.99139 0 00-4.78516-2.53906 41.78116 41.78116 0 00-5.37109-2.05079 45.00527 45.00527 0 00-4.49219-1.07421q-.977-.19484-.97656-.58594c.064-.25928.42285-.39063 1.07422-.39063a17.2855 17.2855 0 014.49223 0z"/></svg>